<?xml version="1.0" encoding="UTF-8" standalone="no"?>
<svg
   viewBox="0 0 407.438 44.087"
   class="ample-logo"
   version="1.1"
   id="svg5"
   sodipodi:docname="ample_logo.svg"
   width="407.43799"
   height="44.087002"
   xml:space="preserve"
   inkscape:version="1.4 (e7c3feb100, 2024-10-09)"
   xmlns:inkscape="http://www.inkscape.org/namespaces/inkscape"
   xmlns:sodipodi="http://sodipodi.sourceforge.net/DTD/sodipodi-0.dtd"
   xmlns="http://www.w3.org/2000/svg"
   xmlns:svg="http://www.w3.org/2000/svg"><defs
     id="defs5" /><sodipodi:namedview
     id="namedview5"
     pagecolor="#ffffff"
     bordercolor="#000000"
     borderopacity="0.25"
     inkscape:showpageshadow="2"
     inkscape:pageopacity="0.0"
     inkscape:pagecheckerboard="0"
     inkscape:deskcolor="#d1d1d1"
     inkscape:zoom="9.1954301"
     inkscape:cx="385.62633"
     inkscape:cy="32.189903"
     inkscape:window-width="1920"
     inkscape:window-height="1034"
     inkscape:window-x="0"
     inkscape:window-y="0"
     inkscape:window-maximized="1"
     inkscape:current-layer="svg5" /><g
     class="amp"
     id="g3"><path
       d="M 8.727,44.087 C 2.475,44.087 0,41.612 0,37.055 A 15.964,15.964 0 0 1 0.26,34.124 L 1.3,28.132 c 1.108,-6.448 4.493,-9.964 11.983,-9.964 h 37.38 l 0.52,-2.8 a 12.851,12.851 0 0 0 0.261,-2.54 c 0,-3.06 -1.693,-3.451 -4.689,-3.451 H 5.731 L 7.359,0 H 50.6 c 7.684,0 11.332,3.321 11.332,10.028 a 26.225,26.225 0 0 1 -0.392,4.3 L 56.266,44.087 Z M 49.363,25.528 H 15.7 c -2.736,0 -3.972,1.367 -4.428,3.841 l -0.391,2.215 a 10.382,10.382 0 0 0 -0.2,1.759 c 0,1.953 1.043,2.213 3.256,2.213 h 33.67 z"
       id="path1" /><path
       d="m 128.062,44.087 5.079,-28.719 a 12.851,12.851 0 0 0 0.261,-2.54 c 0,-3.06 -1.693,-3.451 -4.624,-3.451 h -15.239 l -6.121,34.71 H 97.259 l 6.12,-34.71 H 82.8 l -6.12,34.71 H 66.456 L 74.2,0 h 58.35 c 7.751,0 11.4,3.45 11.4,10.157 a 24.265,24.265 0 0 1 -0.391,4.168 l -5.275,29.762 z"
       id="path2" /><path
       d="m 160.678,33.147 -1.953,10.94 H 148.5 L 156.249,0 h 46.174 c 6.252,0 8.791,2.409 8.791,6.968 a 17.517,17.517 0 0 1 -0.326,3 l -2.149,12.372 c -1.3,7.62 -4.624,10.811 -12.112,10.811 z m 39.6,-20.775 a 9.069,9.069 0 0 0 0.194,-1.692 c 0,-1.955 -1.106,-2.151 -3.256,-2.151 h -32.239 l -2.865,16.282 h 32.235 c 2.736,0 3.908,-1.3 4.428,-4.167 z"
       id="path3" /></g><path
     d="m 226.712,44.087 c -7.684,0 -11.4,-3.32 -11.4,-10.028 a 26.816,26.816 0 0 1 0.456,-4.3 L 220.98,0 h 10.22 l -5.013,28.719 a 16.183,16.183 0 0 0 -0.327,2.669 c 0,3.06 1.759,3.256 4.691,3.256 h 32.951 l -1.692,9.443 z"
     id="path4" /><path
     d="m 281.6,44.087 c -7.748,0 -11.4,-3.32 -11.4,-10.028 a 26.048,26.048 0 0 1 0.392,-4.3 l 3.451,-19.8 C 275.152,3.516 278.6,0 286.158,0 h 37.251 c 6.252,0 8.792,2.409 8.792,6.968 a 17.525,17.525 0 0 1 -0.327,3 l -1.041,6.185 c -1.108,6.447 -4.5,9.964 -11.983,9.964 h -37.315 l -0.456,2.606 a 15.082,15.082 0 0 0 -0.261,2.669 c 0,3.06 1.628,3.256 4.689,3.256 h 40.962 l -1.692,9.443 z m 39.726,-31.715 a 6.951,6.951 0 0 0 0.129,-1.563 c 0,-1.953 -1.041,-2.28 -3.256,-2.28 h -29.828 c -2.733,0 -3.972,1.3 -4.428,3.843 l -1.107,6.317 h 33.6 c 2.8,0 3.972,-1.433 4.428,-3.908 z"
     id="path5" /><g
     id="g5"
     transform="matrix(1.2968519,0,0,1.2967941,343.89263,-10.374353)"><path
       d="M 12,8 C 5.9365932,8 1,12.936593 1,19 v 22 a 1.0001,1.0001 0 0 0 1,1 h 36 c 6.063407,0 11,-4.936593 11,-11 V 9 A 1.0001,1.0001 0 0 0 48,8 Z m 0,2 h 35 v 21 c 0,4.982593 -4.017407,9 -9,9 H 3 V 19 c 0,-4.982593 4.0174068,-9 9,-9 z m 1,8 v 14 h 2 v -6 h 6 v -2 h -6 v -4 h 6.625 v -2 z m 11,0 v 14 h 2 V 22.076172 L 30.181641,32 H 31.875 L 36,22.171875 V 32 h 2 V 18 H 35.703125 L 31.027344,29.224609 26.337891,18 Z"
       id="path1-6" /></g></svg>
