<?xml version="1.0" encoding="UTF-8" standalone="no"?>
<svg
   width="16.271141"
   height="16"
   version="1.1"
   id="svg1"
   sodipodi:docname="github-mark.svg"
   inkscape:version="1.4 (e7c3feb100, 2024-10-09)"
   xmlns:inkscape="http://www.inkscape.org/namespaces/inkscape"
   xmlns:sodipodi="http://sodipodi.sourceforge.net/DTD/sodipodi-0.dtd"
   xmlns="http://www.w3.org/2000/svg"
   xmlns:svg="http://www.w3.org/2000/svg">
  <defs
     id="defs1" />
  <sodipodi:namedview
     id="namedview1"
     pagecolor="#ffffff"
     bordercolor="#000000"
     borderopacity="0.25"
     inkscape:showpageshadow="2"
     inkscape:pageopacity="0.0"
     inkscape:pagecheckerboard="0"
     inkscape:deskcolor="#d1d1d1"
     inkscape:zoom="8.6458333"
     inkscape:cx="8.3277108"
     inkscape:cy="7.9807229"
     inkscape:window-width="1920"
     inkscape:window-height="1034"
     inkscape:window-x="0"
     inkscape:window-y="0"
     inkscape:window-maximized="1"
     inkscape:current-layer="svg1" />
  <path
     fill-rule="evenodd"
     clip-rule="evenodd"
     d="M 8.142299,0 C 3.639818,0 0,3.666651 0,8.202799 c 0,3.625985 2.332157,6.695305 5.567476,7.781634 0.404499,0.08167 0.552665,-0.176499 0.552665,-0.393665 0,-0.190166 -0.01333,-0.841997 -0.01333,-1.52116 -2.26499,0.488998 -2.736655,-0.97783 -2.736655,-0.97783 -0.363998,-0.950662 -0.903329,-1.194995 -0.903329,-1.194995 -0.741331,-0.502498 0.054,-0.502498 0.054,-0.502498 0.82233,0.05433 1.253829,0.841997 1.253829,0.841997 0.72783,1.249328 1.900658,0.896329 2.37249,0.678997 0.06733,-0.529664 0.283165,-0.89633 0.512331,-1.099995 -1.806493,-0.190166 -3.707151,-0.89633 -3.707151,-4.04715 0,-0.89633 0.323332,-1.62966 0.835663,-2.199991 -0.08083,-0.203666 -0.363999,-1.045829 0.081,-2.172991 0,0 0.687498,-0.217332 2.237658,0.841997 A 7.8283006,7.8283006 0 0 1 8.142305,3.965483 c 0.687497,0 1.388327,0.09517 2.035491,0.271666 1.550327,-1.059329 2.237824,-0.841997 2.237824,-0.841997 0.444999,1.127162 0.161666,1.969325 0.08083,2.172991 0.525832,0.570331 0.83583,1.303661 0.83583,2.199991 0,3.15082 -1.900658,3.843317 -3.720651,4.04715 0.296666,0.257999 0.552664,0.74683 0.552664,1.520993 0,1.099996 -0.01333,1.982825 -0.01333,2.254324 0,0.217333 0.148333,0.475498 0.552665,0.393999 3.235319,-1.086663 5.567476,-4.155816 5.567476,-7.781801 C 16.284434,3.666651 12.631286,0 8.142305,0 Z"
     fill="#24292f"
     id="path1"
     style="stroke-width:0.166666" />
</svg>
